# xmcd CD database file
#
# Track frame offsets:
#	150
#	26788
#	49690
#	74259
#	94717
#	113357
#	133661
#	154415
#	180573
#	203185
#	228594
#	250010
#	273339
#	294369
#	320873
#
# Disc length: 4549 seconds
#
# Revision: 4
# Processed by: cddbd v1.5.2PL0 Copyright (c) Steve Scherf et al.
# Submitted via: CDex 1.40Release
#
DISCID=d611c30f
DTITLE=Mr.Children - 1992-1995
DYEAR=1900
DGENRE=Jazz
TTITLE0=?????
TTITLE1=??????
TTITLE2=??????
TTITLE3=Replay
TTITLE4=LOVE
TTITLE5=my life
TTITLE6=CROSS ROAD
TTITLE7=innocent world
TTITLE8=Dance Dance Dance
TTITLE9=?????
TTITLE10=Over
TTITLE11=Tomorrow never knows
TTITLE12=everybody goes?????????????????
TTITLE13=?es??Theme of es?
TTITLE14=???????????????
EXTD=ID3G: 8
EXTT0=
EXTT1=
EXTT2=
EXTT3=
EXTT4=
EXTT5=
EXTT6=
EXTT7=
EXTT8=
EXTT9=
EXTT10=
EXTT11=
EXTT12=
EXTT13=
EXTT14=
PLAYORDER=
